# Wavefront OBJ exported by MilkShape 3D

mtllib tris.mtl

v 11.633131 0.050167 0.018726
v 11.633131 62.806942 0.018726
v -11.190010 0.050167 0.018726
v -11.190010 62.806942 0.018726
v 11.633131 0.050167 0.018726
v 11.633131 62.806942 0.018726
v -11.190010 0.050167 0.018726
v -11.190010 62.806942 0.018726
# 8 vertices

vt 1.117071 0.000499
vt 1.117072 0.999500
vt -0.042690 0.000500
vt -0.042689 0.999501
# 4 texture coordinates

vn 0.000000 0.000000 1.000000
# 1 normals

g fern
usemtl Material.000001
s 1
f 1/1/1 2/2/1 3/3/1
f 4/4/1 3/3/1 2/2/1
f 5/1/1 6/2/1 7/3/1
f 8/4/1 7/3/1 6/2/1
# 4 triangles in group

# 4 triangles total

