# Wavefront OBJ exported by MilkShape 3D

mtllib tris.mtl

v 85.503937 45.968544 -51.162033
v 85.016228 0.554853 -3.582050
v -78.701012 0.554852 -3.582062
v -78.940712 45.968544 -51.162033
v 88.237473 64.800598 -4.810125
v -77.322357 64.800583 -4.810131
v -76.943230 0.679035 -4.810131
v 87.887901 0.679035 -4.810118
v 49.260967 44.945770 78.665688
v 49.260967 44.945770 -96.451035
v 0.812263 0.460121 -96.912132
v 0.812262 0.460127 79.082176
v -46.501503 45.026665 83.308334
v -46.501503 45.026665 -92.873810
v 1.794765 0.375526 -92.807289
v 1.794765 0.375530 83.187019
v 89.094109 47.668610 40.668983
v -78.117554 47.668610 40.668976
v -78.120461 0.525730 -5.198292
v 88.978081 0.525730 -5.198278
v 58.563805 0.678902 -54.828720
v -77.875641 19.053684 29.311874
v 34.695976 22.896965 -84.163559
v 0.980902 64.861389 83.254509
v 0.980903 64.861382 -92.247993
v 0.980899 0.679062 -92.807289
v 0.980897 0.679066 83.187019
v -53.375210 0.678904 57.110275
v 55.992790 0.678902 -59.817490
v 83.135788 22.896969 -33.483788
v -30.652351 19.053688 77.593414
v -56.209618 0.678904 50.763428
v -50.115154 0.678902 -63.293335
v 34.025452 19.053688 73.146111
v -79.449989 22.896969 -39.425507
v 61.823849 0.678904 48.645676
v -55.103924 0.678902 -60.722313
v -28.770218 22.896965 -87.865318
v 82.306984 19.053684 25.922821
v 55.477001 0.678904 51.480080
# 40 vertices

vt 0.000500 0.999500
vt 0.003462 0.000500
vt 0.998044 0.000500
vt 0.999500 0.999500
vt 0.997136 0.999501
vt 0.003117 0.999501
vt 0.000500 0.000500
vt 0.999500 0.000500
vt 0.019215 0.000000
vt 0.977666 0.976006
vt 0.020252 0.976006
vt 0.991218 0.999500
vt 0.004729 0.999500
vt 0.006146 0.000500
vt 0.996098 0.000500
vt 0.976718 0.000000
# 16 texture coordinates

vn 0.000000 -0.723383 -0.690447
vn -0.000000 0.000000 1.000000
vn -0.676338 0.736591 -0.000000
vn -0.678854 -0.734273 0.000000
vn -0.000000 -0.697343 0.716737
vn -0.330189 -0.879227 -0.343416
vn -0.345295 -0.861735 -0.371730
vn -1.000000 0.000000 -0.000000
vn -0.314642 -0.895545 -0.314643
vn 0.340407 -0.879614 0.332268
vn 0.368477 -0.862190 0.347639
vn 0.311884 -0.895870 0.316457
vn -0.343416 -0.879227 0.330189
vn -0.371731 -0.861735 0.345295
vn -0.314643 -0.895545 0.314643
vn 0.332268 -0.879614 -0.340407
vn 0.347639 -0.862190 -0.368477
vn 0.316457 -0.895870 -0.311884
# 18 normals

g heather
usemtl Material.000001
s 1
f 1/1/1 2/2/1 3/3/1
f 3/3/1 4/4/1 1/1/1
f 5/4/2 6/1/2 7/2/2
f 7/2/2 8/3/2 5/4/2
f 9/5/3 10/6/3 11/7/3
f 11/7/3 12/8/3 9/5/3
f 13/4/4 14/1/4 15/7/4
f 15/7/4 16/3/4 13/4/4
f 17/4/5 18/1/5 19/7/5
f 19/7/5 20/3/5 17/4/5
f 21/9/6 22/10/6 23/11/7
f 24/12/8 25/13/8 26/14/8
f 26/14/8 27/15/8 24/12/8
f 21/9/6 28/16/9 22/10/6
f 29/9/10 30/11/11 31/10/10
f 29/9/10 31/10/10 32/16/12
f 33/9/13 34/10/13 35/11/14
f 33/9/13 36/16/15 34/10/13
f 37/9/16 38/11/17 39/10/16
f 37/9/16 39/10/16 40/16/18
# 20 triangles in group

# 20 triangles total

