# Wavefront OBJ exported by MilkShape 3D

mtllib tris.mtl

v -18.037666 41.013241 -17.318960
v -12.208023 31.950586 -8.960630
v -7.146888 41.810863 -24.205961
v -1.317250 32.748211 -15.847626
v -8.640608 19.980494 -2.152046
v 3.934976 20.708597 -10.104462
v -1.360493 1.396505 4.855438
v 11.215084 1.396502 -3.096983
v 20.169662 44.988308 17.171949
v 16.788368 35.291607 10.099955
v 4.270030 45.647297 25.437992
v 0.888751 35.950603 18.366011
v 13.823545 19.286612 3.828224
v -3.875593 19.748201 12.951708
v 10.668610 0.763893 -2.466715
v -7.030534 0.763893 6.656939
v -10.309729 76.328484 -4.508631
v -9.657791 57.641148 0.412451
v 8.052853 76.831970 -9.178311
v 8.704792 58.144627 -4.257223
v -9.570852 41.093410 2.994640
v 10.728046 40.320454 -2.054199
v -9.520742 1.525412 2.038445
v 10.783924 1.800415 -3.120403
v 15.746702 44.466351 -18.173342
v 8.840290 33.925106 -14.683048
v 22.597816 44.514355 -0.670809
v 15.691397 33.973110 2.819489
v 2.916651 17.682669 -13.033629
v 10.634422 18.121704 6.262693
v 0.503134 0.423273 -9.937781
v 8.220913 0.949390 9.358536
v -15.015184 53.585316 22.234186
v -8.703342 40.326382 16.060740
v -24.812885 53.555393 8.875307
v -18.501034 40.296459 2.701855
v -13.092730 25.146742 -1.547400
v -2.191003 25.375639 13.471375
v 7.150288 1.409399 9.879152
v -3.751452 1.409399 -5.139492
v 0.701431 62.798664 18.180883
v 3.508752 49.094013 12.552818
v -13.614122 62.578060 11.437889
v -10.806822 48.873409 5.809858
v -7.866410 32.795612 0.942835
v 8.233267 32.490726 8.706017
v 11.363276 1.233561 4.173239
v -4.740424 1.165081 -3.513523
v 0.298898 62.704922 -15.514009
v -3.112704 48.996449 -9.052087
v 15.966081 62.560078 -8.585551
v 13.586298 48.851604 -1.519077
v 12.060844 27.827665 2.327271
v -5.432049 27.886934 -5.401884
v -5.587334 2.175408 -4.868996
v 11.905941 2.106931 2.858850
# 56 vertices

vt 0.000000 0.999024
vt 0.000000 0.606609
vt 1.000000 0.999605
vt 1.000000 0.607191
vt 0.000000 0.265580
vt 0.998795 0.264415
vt 0.000000 0.001539
vt 0.999780 0.000499
vt 1.005167 1.000092
vt 1.004457 0.629620
vt 0.004349 0.999445
vt 0.004349 0.628974
vt 1.004349 0.302582
vt 0.004349 0.299623
vt 1.004349 0.018873
vt 0.004349 0.011155
vt 0.000000 0.683029
vt 1.000000 0.683340
vt 0.000000 0.363685
vt 0.998859 0.364714
vt 0.000000 0.000409
vt 0.998700 0.000500
vt -0.000246 0.992489
vt 0.002298 0.622808
vt 1.000000 0.993772
vt 1.000000 0.624091
vt 0.000000 0.341504
vt 1.000000 0.342354
vt 0.000000 0.021115
vt 1.000000 0.022773
vt 0.993539 0.993363
vt 0.993539 0.721299
vt -0.006461 0.982512
vt -0.006461 0.710449
vt -0.006751 0.305993
vt 0.993539 0.325593
vt 0.993539 0.021766
vt -0.005810 0.000499
vt 0.002806 0.996302
vt 0.003140 0.637566
vt 1.000000 0.997009
vt 1.000000 0.638273
vt 1.000000 0.304118
vt 0.000000 0.310071
vt 1.000000 0.003125
vt 1.009106 0.997714
vt 1.009106 0.713216
vt 0.009106 0.997244
vt 0.009106 0.715515
vt 0.008297 0.368422
vt 1.009106 0.368279
vt 1.009106 0.000374
vt 0.007530 0.000499
# 53 texture coordinates

vn 0.316644 0.745081 0.587018
vn 0.354397 0.682284 0.639446
vn 0.392370 0.611667 0.686957
vn 0.435197 0.513443 0.739581
vn 0.453686 0.484489 0.747957
vn 0.465247 0.458819 0.756988
vn 0.476480 0.453024 0.753483
vn -0.338052 0.628665 -0.700358
vn -0.365085 0.556182 -0.746576
vn -0.390183 0.477867 -0.787020
vn -0.414696 0.382911 -0.825473
vn -0.421176 0.366295 -0.829722
vn -0.425279 0.351536 -0.834003
vn -0.429599 0.347726 -0.833386
vn 0.231714 0.255277 0.938692
vn 0.234688 0.220768 0.946669
vn 0.238809 0.184371 0.953403
vn 0.242213 0.091621 0.965887
vn 0.244463 0.032301 0.969120
vn 0.243489 -0.024802 0.969587
vn 0.246499 -0.026458 0.968782
vn -0.752429 0.589961 0.292910
vn -0.798700 0.514991 0.311227
vn -0.838814 0.435062 0.327278
vn -0.888129 0.299894 0.348267
vn -0.901832 0.246616 0.354795
vn -0.912733 0.192738 0.360237
vn 0.672619 0.550461 -0.494547
vn 0.705448 0.483293 -0.518431
vn 0.741470 0.394408 -0.542830
vn 0.741124 0.393502 -0.543959
vn 0.748695 0.375502 -0.546309
vn 0.749472 0.377263 -0.544027
vn 0.382047 0.416953 -0.824736
vn 0.395221 0.370907 -0.840374
vn 0.390338 0.374722 -0.840963
vn 0.418694 0.247474 -0.873757
vn 0.424905 0.244528 -0.871586
vn 0.427328 0.169461 -0.888073
vn 0.424120 0.167308 -0.890017
vn -0.353488 0.469389 0.809148
vn -0.381479 0.337935 0.860392
vn -0.355828 0.472784 0.806140
vn -0.384502 0.338400 0.858862
vn -0.402944 0.108963 0.908715
vn -0.401369 0.110396 0.909239
vn -0.403963 0.021364 0.914526
# 47 normals

g fern
usemtl Material01
s 1
f 1/1/1 2/2/2 3/3/1
f 3/3/1 2/2/2 4/4/3
f 5/5/4 4/4/3 2/2/2
f 4/4/3 5/5/4 6/6/5
f 7/7/6 6/6/5 5/5/4
f 6/6/5 7/7/6 8/8/7
f 9/9/8 10/10/9 11/11/8
f 11/11/8 10/10/9 12/12/10
f 13/13/11 12/12/10 10/10/9
f 12/12/10 13/13/11 14/14/12
f 15/15/13 14/14/12 13/13/11
f 14/14/12 15/15/13 16/16/14
f 17/1/15 18/17/16 19/3/15
f 19/3/15 18/17/16 20/18/17
f 21/19/18 20/18/17 18/17/16
f 20/18/17 21/19/18 22/20/19
f 23/21/20 22/20/19 21/19/18
f 22/20/19 23/21/20 24/22/21
f 25/23/22 26/24/23 27/25/22
f 27/25/22 26/24/23 28/26/24
f 29/27/25 28/26/24 26/24/23
f 28/26/24 29/27/25 30/28/26
f 31/29/27 30/28/26 29/27/25
f 30/28/26 31/29/27 32/30/27
f 33/31/28 34/32/29 35/33/28
f 35/33/28 34/32/29 36/34/29
f 36/34/29 34/32/29 37/35/30
f 38/36/31 37/35/30 34/32/29
f 39/37/32 37/35/30 38/36/31
f 37/35/30 39/37/32 40/38/33
f 41/39/34 42/40/35 43/41/34
f 43/41/34 42/40/35 44/42/36
f 44/42/36 42/40/35 45/43/37
f 46/44/38 45/43/37 42/40/35
f 47/7/39 45/43/37 46/44/38
f 45/43/37 47/7/39 48/45/40
f 49/46/41 50/47/42 51/48/43
f 51/48/43 50/47/42 52/49/44
f 52/49/44 50/47/42 53/50/45
f 54/51/46 53/50/45 50/47/42
f 55/52/47 53/50/45 54/51/46
f 53/50/45 55/52/47 56/53/47
# 42 triangles in group

# 42 triangles total

