# Wavefront OBJ exported by MilkShape 3D

mtllib tris.mtl

v -11.066564 72.640999 -16.766609
v -13.963073 61.877415 -8.741608
v -1.832499 63.250729 -11.964440
v -14.950076 28.632093 1.274328
v 9.310638 29.202307 -5.222036
v -14.950076 1.111057 1.274328
v 9.310637 1.681269 -5.222036
v -15.261730 45.092052 -54.803665
v -18.822237 42.535465 -41.849411
v -6.487719 42.535465 -44.629852
v -19.434748 22.991884 -13.821221
v 5.234283 22.991880 -19.382093
v -13.635361 1.112223 6.017784
v 11.033670 1.112215 0.456913
v 37.210575 39.326244 -33.958221
v 24.202898 36.073574 -31.266296
v 32.252178 36.520664 -21.525654
v 0.751669 15.589753 -19.153330
v 16.850229 16.483929 0.327959
v -9.003526 -0.541857 -10.579114
v 7.095036 0.352316 8.902174
v 38.468662 57.207546 14.536449
v 30.722263 51.795246 4.650791
v 26.048395 51.795246 16.399235
v 11.029312 16.802866 -10.067018
v 1.681583 16.802866 13.429874
v 2.933913 1.121189 -12.559477
v -6.413815 1.121189 10.937412
v 14.170326 45.092083 52.976509
v 16.846672 42.535480 39.811134
v 4.728416 42.535480 43.419327
v 15.044632 21.458799 11.676960
v -9.191878 21.458803 18.893312
v 11.386475 0.037046 0.353502
v -12.850037 0.037052 7.569857
v -8.516105 1.134138 -7.694481
v -26.416227 23.315725 2.633831
v 6.572160 1.134142 12.599064
v -11.327960 23.315729 22.927370
v -35.081364 42.535480 32.742294
v -42.625496 42.535480 22.595522
v -48.366386 45.092075 34.741798
v 6.391348 0.593634 -11.568398
v -11.507997 22.983564 -18.595682
v -2.956380 0.593634 11.928493
v -20.855724 22.983564 4.901209
v -40.778961 42.535473 -9.828722
v -36.105103 42.535473 -21.577169
v -49.456612 45.092068 -20.084846
# 49 vertices

vt 0.480361 0.999501
vt 0.256283 0.818596
vt 0.854662 0.820001
vt 0.000995 0.327143
vt 0.999499 0.326704
vt 0.000499 0.000939
vt 0.999003 0.000500
vt 0.492163 0.999500
vt 0.266087 0.829267
vt 0.850414 0.828646
vt 0.042950 0.376803
vt 1.001195 0.375561
vt 0.043101 0.001742
vt 1.001346 0.000500
vt 0.486798 0.999500
vt 0.241058 0.787078
vt 0.873455 0.786645
vt 0.000500 0.277001
vt 0.999513 0.276135
vt 0.497747 0.999500
vt 0.246945 0.822461
vt 0.863024 0.821147
vt 0.000501 0.238511
vt 1.000100 0.235883
vt 0.001747 0.003127
vt 0.510523 0.999500
vt 0.271752 0.840581
vt 0.852013 0.839419
vt 0.000500 0.333984
vt 0.998598 0.331659
vt 0.999501 0.423948
vt 0.000715 0.424395
vt 0.301915 0.859702
vt 0.824378 0.859479
vt 0.534466 0.999500
vt 1.000361 0.398046
vt 0.000499 0.398988
vt 0.280843 0.834679
vt 0.841682 0.834208
# 39 texture coordinates

vn 0.151734 0.564236 0.811551
vn 0.187074 0.425457 0.885432
vn 0.206820 0.372647 0.904632
vn 0.241986 0.181574 0.953139
vn 0.255687 0.088878 0.962665
vn 0.258660 -0.000000 0.965968
vn 0.046360 0.977524 0.205662
vn 0.089198 0.914039 0.395698
vn 0.102899 0.883765 0.456477
vn 0.139431 0.773282 0.618541
vn 0.150044 0.731049 0.665623
vn 0.160001 0.686000 0.709791
vn -0.214482 0.967655 0.132824
vn -0.361978 0.895769 0.258009
vn -0.408591 0.862683 0.298047
vn -0.537357 0.736858 0.410229
vn -0.577811 0.683462 0.446110
vn -0.614725 0.626459 0.479231
vn -0.414699 0.894878 -0.164979
vn -0.611758 0.752676 -0.243375
vn -0.670239 0.692592 -0.266640
vn -0.786239 0.532909 -0.312788
vn -0.802655 0.503766 -0.319319
vn -0.818122 0.474072 -0.325472
vn -0.060162 0.977524 -0.202057
vn -0.119833 0.907559 -0.402463
vn -0.138835 0.873674 -0.466282
vn -0.202704 0.703871 -0.680791
vn -0.228448 0.599276 -0.767255
vn -0.249477 0.485504 -0.837882
vn 0.588989 0.679207 -0.437914
vn 0.541445 0.738092 -0.402565
vn 0.391698 0.872788 -0.291228
vn 0.337969 0.906992 -0.251280
vn 0.169184 0.977524 -0.125789
vn 0.704890 0.651530 0.280425
vn 0.648725 0.715926 0.258081
vn 0.468491 0.863585 0.186379
vn 0.402865 0.901118 0.160271
vn 0.195890 0.977524 0.077931
# 40 normals

g fern
usemtl Material.000001
s 1
f 1/1/1 2/2/2 3/3/3
f 4/4/4 3/3/3 2/2/2
f 3/3/3 4/4/4 5/5/5
f 6/6/6 5/5/5 4/4/4
f 5/5/5 6/6/6 7/7/6
f 8/8/7 9/9/8 10/10/9
f 11/11/10 10/10/9 9/9/8
f 10/10/9 11/11/10 12/12/11
f 13/13/12 12/12/11 11/11/10
f 12/12/11 13/13/12 14/14/12
f 15/15/13 16/16/14 17/17/15
f 18/18/16 17/17/15 16/16/14
f 17/17/15 18/18/16 19/19/17
f 20/6/18 19/19/17 18/18/16
f 19/19/17 20/6/18 21/7/18
f 22/20/19 23/21/20 24/22/21
f 25/23/22 24/22/21 23/21/20
f 24/22/21 25/23/22 26/24/23
f 27/25/24 26/24/23 25/23/22
f 26/24/23 27/25/24 28/7/24
f 29/26/25 30/27/26 31/28/27
f 32/29/28 31/28/27 30/27/26
f 31/28/27 32/29/28 33/30/29
f 34/25/30 33/30/29 32/29/28
f 33/30/29 34/25/30 35/7/30
f 36/7/31 37/31/32 38/6/31
f 38/6/31 37/31/32 39/32/32
f 39/32/32 37/31/32 40/33/33
f 41/34/34 40/33/33 37/31/32
f 40/33/33 41/34/34 42/35/35
f 43/7/36 44/36/37 45/6/36
f 45/6/36 44/36/37 46/37/37
f 46/37/37 44/36/37 47/38/38
f 48/39/39 47/38/38 44/36/37
f 47/38/38 48/39/39 49/8/40
# 35 triangles in group

# 35 triangles total

